<svg xmlns="http://www.w3.org/2000/svg" version="1.1" xmlns:xlink="http://www.w3.org/1999/xlink" xmlns:svgjs="http://svgjs.dev/svgjs" width="1500" height="1500" viewBox="0 0 1500 1500"><rect width="1500" height="1500" fill="#ffffff"></rect><g transform="matrix(0.6666666666666666,0,0,0.6666666666666666,249.64138732889666,630.2061844734001)"><svg viewBox="0 0 396 94" data-background-color="#ffffff" preserveAspectRatio="xMidYMid meet" height="356" width="1500" xmlns="http://www.w3.org/2000/svg" xmlns:xlink="http://www.w3.org/1999/xlink"><g id="tight-bounds" transform="matrix(1,0,0,1,0.24675614166744708,0.44642693609716844)"><svg viewBox="0 0 395.52 93.10714612780569" height="93.10714612780569" width="395.52"><g><svg viewBox="0 0 597.7697942282393 140.71763648360897" height="93.10714612780569" width="395.52"><g><rect width="5.431259070206131" height="102.33084273952748" x="182.60057947686542" y="19.193396872040744" fill="#7e91c6" opacity="1" stroke-width="0" stroke="transparent" fill-opacity="1" class="rect-yte-0" data-fill-palette-color="primary" rx="1%" id="yte-0" data-palette-color="#7e91c6"></rect></g><g transform="matrix(1,0,0,1,202.24979422823944,19.44795120721369)"><svg viewBox="0 0 395.52 101.82173406918159" height="101.82173406918159" width="395.52"><g id="textblocktransform"><svg viewBox="0 0 395.52 101.82173406918159" height="101.82173406918159" width="395.52" id="textblock"><g><svg viewBox="0 0 395.52 60.226180048661796" height="60.226180048661796" width="395.52"><g transform="matrix(1,0,0,1,0,0)"><svg width="395.52" viewBox="2.65 -31.7 245.92000000000002 37.55" height="60.226180048661796" data-palette-color="#7e91c6"><g class="wordmark-text-0" data-fill-palette-color="primary" id="text-0"><path d="M16.05 0L12.75 0 6.55-14.35 12.9-24.75 16-24.75 9.6-14.35 16.05 0ZM5.7 0L2.65 0 2.65-31.7 5.7-31.7 5.7 0ZM22.55 0L19.45 0 19.45-24.75 22-24.75 22.4-22.1Q22.8-23.6 24.25-24.4 25.7-25.2 27.25-25.2L27.25-25.2Q29.9-25.2 31.12-24.28 32.35-23.35 32.7-21.88 33.05-20.4 33.05-18.65L33.05-18.65 33.05 0 29.95 0 29.95-18.2Q29.95-19.1 29.9-19.95 29.85-20.8 29.52-21.48 29.2-22.15 28.45-22.55 27.7-22.95 26.25-22.95L26.25-22.95Q25-22.95 24.22-22.48 23.45-22 23.07-21.38 22.7-20.75 22.55-20.2L22.55-20.2 22.55 0ZM44.15 0.35L44.15 0.35Q41.84 0.35 40.32-0.28 38.8-0.9 38.07-2.5 37.34-4.1 37.34-6.9L37.34-6.9 37.34-18.45Q37.34-22.05 38.92-23.6 40.5-25.15 44.15-25.15L44.15-25.15Q47.8-25.15 49.37-23.65 50.95-22.15 50.95-18.45L50.95-18.45 50.95-6.9Q50.95-4.1 50.25-2.53 49.55-0.95 48.05-0.3 46.55 0.35 44.15 0.35ZM44.15-1.6L44.15-1.6Q46.15-1.6 47-2.6 47.84-3.6 47.84-6.25L47.84-6.25 47.84-18.6Q47.84-21.05 47.05-22.13 46.25-23.2 44.15-23.2L44.15-23.2Q42.2-23.2 41.32-22.18 40.45-21.15 40.45-18.6L40.45-18.6 40.45-6.25Q40.45-3.65 41.32-2.63 42.2-1.6 44.15-1.6ZM62.59 0L59.04 0 53.49-24.75 56.49-24.75 60.84-3.95 65.09-24.75 68.04-24.75 72.54-3.95 76.59-24.75 79.54-24.75 74.19 0 70.64 0 66.54-18.6 62.59 0Z" fill="#7e91c6" data-fill-palette-color="primary"></path><path d="M92.24 5.85L92.24 5.85Q91.19 5.85 90.36 5.7 89.54 5.55 89.09 5.45L89.09 5.45 89.09 3.6Q89.24 3.7 89.76 3.8 90.29 3.9 90.99 3.9L90.99 3.9Q91.74 3.9 92.66 3.65 93.59 3.4 94.19 2.25L94.19 2.25Q94.49 1.75 94.86 1.1 95.24 0.45 95.04-0.4L95.04-0.4 89.34-24.75 92.54-24.75 97.09-3.15 97.04-3.15 101.44-24.75 104.39-24.75 98.99-0.95Q98.24 2.5 96.64 4.17 95.04 5.85 92.24 5.85ZM113.53 0.35L113.53 0.35Q111.24 0.35 109.71-0.28 108.18-0.9 107.46-2.5 106.74-4.1 106.74-6.9L106.74-6.9 106.74-18.45Q106.74-22.05 108.31-23.6 109.88-25.15 113.53-25.15L113.53-25.15Q117.18-25.15 118.76-23.65 120.34-22.15 120.34-18.45L120.34-18.45 120.34-6.9Q120.34-4.1 119.63-2.53 118.93-0.95 117.43-0.3 115.93 0.35 113.53 0.35ZM113.53-1.6L113.53-1.6Q115.54-1.6 116.38-2.6 117.24-3.6 117.24-6.25L117.24-6.25 117.24-18.6Q117.24-21.05 116.43-22.13 115.63-23.2 113.53-23.2L113.53-23.2Q111.59-23.2 110.71-22.18 109.84-21.15 109.84-18.6L109.84-18.6 109.84-6.25Q109.84-3.65 110.71-2.63 111.59-1.6 113.53-1.6ZM130.43 0.4L130.43 0.4Q127.83 0.4 126.58-0.53 125.33-1.45 124.98-2.95 124.63-4.45 124.63-6.15L124.63-6.15 124.63-24.75 127.73-24.75 127.73-6.55Q127.73-5.45 127.86-4.38 127.98-3.3 128.78-2.63 129.58-1.95 131.43-1.95L131.43-1.95Q132.73-1.95 133.48-2.4 134.23-2.85 134.63-3.48 135.03-4.1 135.13-4.6L135.13-4.6 135.13-24.75 138.23-24.75 138.23 0 135.58 0 135.33-2.7Q134.93-1.5 133.71-0.55 132.48 0.4 130.43 0.4ZM146.63 0L143.53 0 143.53-24.75 146.13-24.75 146.48-22.1Q147.03-23.5 148.28-24.1 149.53-24.7 150.78-24.85L150.78-24.85Q152.18-25.15 153.48-24.9L153.48-24.9 153.48-22.45Q153.28-22.5 152.78-22.55 152.28-22.6 151.71-22.6 151.13-22.6 150.63-22.4L150.63-22.4Q148.93-22.2 147.78-21.18 146.63-20.15 146.63-18.4L146.63-18.4 146.63 0Z" fill="#eb7043" data-fill-palette-color="accent"></path><path d="M172.73 0.35L172.73 0.35Q170.38 0.35 169.25-0.48 168.13-1.3 167.73-2.3L167.73-2.3 167.58 0 165.38 0 165.38-31.5 168.43-31.5 168.43-22.7Q169.03-23.95 170.2-24.58 171.38-25.2 173.18-25.2L173.18-25.2Q175.08-25.2 176.38-24.6 177.68-24 178.33-22.65 178.98-21.3 178.98-18.9L178.98-18.9 178.98-6.65Q178.98-4.6 178.6-3.25 178.23-1.9 177.48-1.1 176.73-0.3 175.55 0.03 174.38 0.35 172.73 0.35ZM172.18-1.85L172.18-1.85Q173.58-1.85 174.38-2.25 175.18-2.65 175.53-3.63 175.88-4.6 175.88-6.35L175.88-6.35 175.88-18.8Q175.88-21.3 175.05-22.2 174.23-23.1 172.18-23.1L172.18-23.1Q170.08-23.1 169.28-22.05 168.48-21 168.48-19L168.48-19 168.48-6.65Q168.48-4.1 169.35-2.98 170.23-1.85 172.18-1.85ZM189.82 0.35L189.82 0.35Q187.53 0.35 186-0.28 184.48-0.9 183.75-2.5 183.03-4.1 183.03-6.9L183.03-6.9 183.03-18.45Q183.03-22.05 184.6-23.6 186.18-25.15 189.82-25.15L189.82-25.15Q193.48-25.15 195.05-23.65 196.63-22.15 196.63-18.45L196.63-18.45 196.63-6.9Q196.63-4.1 195.93-2.53 195.23-0.95 193.73-0.3 192.23 0.35 189.82 0.35ZM189.82-1.6L189.82-1.6Q191.82-1.6 192.68-2.6 193.53-3.6 193.53-6.25L193.53-6.25 193.53-18.6Q193.53-21.05 192.73-22.13 191.93-23.2 189.82-23.2L189.82-23.2Q187.88-23.2 187-22.18 186.13-21.15 186.13-18.6L186.13-18.6 186.13-6.25Q186.13-3.65 187-2.63 187.88-1.6 189.82-1.6ZM207.47 0.35L207.47 0.35Q205.17 0.35 203.65-0.28 202.12-0.9 201.4-2.5 200.67-4.1 200.67-6.9L200.67-6.9 200.67-18.45Q200.67-22.05 202.25-23.6 203.82-25.15 207.47-25.15L207.47-25.15Q211.12-25.15 212.7-23.65 214.27-22.15 214.27-18.45L214.27-18.45 214.27-6.9Q214.27-4.1 213.57-2.53 212.87-0.95 211.37-0.3 209.87 0.35 207.47 0.35ZM207.47-1.6L207.47-1.6Q209.47-1.6 210.32-2.6 211.17-3.6 211.17-6.25L211.17-6.25 211.17-18.6Q211.17-21.05 210.37-22.13 209.57-23.2 207.47-23.2L207.47-23.2Q205.52-23.2 204.65-22.18 203.77-21.15 203.77-18.6L203.77-18.6 203.77-6.25Q203.77-3.65 204.65-2.63 205.52-1.6 207.47-1.6ZM232.32 0L229.02 0 222.82-14.35 229.17-24.75 232.27-24.75 225.87-14.35 232.32 0ZM221.97 0L218.92 0 218.92-31.7 221.97-31.7 221.97 0ZM241.72 0.35L241.72 0.35Q239.02 0.35 237.52-0.33 236.02-1 235.42-2.48 234.82-3.95 234.82-6.4L234.82-6.4 234.82-8.55 237.97-8.55 237.97-5.7Q237.97-3.35 238.77-2.45 239.57-1.55 241.67-1.55L241.67-1.55Q243.52-1.55 244.39-2.45 245.27-3.35 245.27-5.5L245.27-5.5 245.27-6.9Q245.27-8.05 244.92-8.88 244.57-9.7 243.59-10.4 242.62-11.1 240.87-11.8L240.87-11.8Q239.22-12.45 237.97-13.2 236.72-13.95 235.99-15.1 235.27-16.25 235.27-18.05L235.27-18.05 235.27-19.55Q235.27-22.2 236.79-23.68 238.32-25.15 241.97-25.15L241.97-25.15Q244.37-25.15 245.79-24.5 247.22-23.85 247.89-22.4 248.57-20.95 248.57-18.65L248.57-18.65 248.57-16.55 245.52-16.55 245.52-18.95Q245.52-21.45 244.67-22.38 243.82-23.3 241.97-23.3L241.97-23.3Q239.87-23.3 239.14-22.3 238.42-21.3 238.42-19.8L238.42-19.8 238.42-18.45Q238.42-17.05 239.04-16.15 239.67-15.25 240.82-14.65 241.97-14.05 243.57-13.4L243.57-13.4Q245.02-12.8 246.14-12.13 247.27-11.45 247.92-10.3 248.57-9.15 248.57-7.15L248.57-7.15 248.57-6Q248.57-4 247.94-2.58 247.32-1.15 245.82-0.4 244.32 0.35 241.72 0.35Z" fill="#7e91c6" data-fill-palette-color="primary"></path></g></svg></g></svg></g><g transform="matrix(1,0,0,1,0,74.44413572982968)"><svg viewBox="0 0 232.20979200000002 27.377598339351913" height="27.377598339351913" width="232.20979200000002"><g transform="matrix(1,0,0,1,0,0)"><svg width="232.20979200000002" viewBox="4.5 -37.7 418.11 49.300000000000004" height="27.377598339351913" data-palette-color="#7e91c6"><path d="M16.55-26.7L18.1-26.7 18.1-21.85 17.35-21.85Q15-21.85 13.13-21 11.25-20.15 10-18.55L10-18.55 10 0 5.6 0 5.6-20.3 4.5-26.1 8.9-26.1 9.8-21.45Q11.85-24.45 13.28-25.58 14.7-26.7 16.55-26.7L16.55-26.7ZM46.6-13.05L46.6-11.6 28.1-11.6Q28.5-7.75 30.67-5.48 32.85-3.2 36.6-3.2L36.6-3.2Q38.85-3.2 40.97-4.13 43.1-5.05 45.3-6.85L45.3-6.85 45.5-6.85 45.5-2.45Q43.3-0.85 41.15-0.13 39 0.6 36.55 0.6L36.55 0.6Q32.55 0.6 29.6-1.15 26.65-2.9 25.07-6.03 23.5-9.15 23.5-13.2L23.5-13.2Q23.5-17.05 24.92-20.13 26.35-23.2 29-24.95 31.65-26.7 35.2-26.7L35.2-26.7Q38.8-26.7 41.37-24.93 43.95-23.15 45.27-20.05 46.6-16.95 46.6-13.05L46.6-13.05ZM35.25-23.05Q32.15-23.05 30.3-20.8 28.45-18.55 28.1-15L28.1-15 42.05-15Q41.7-18.65 40.02-20.85 38.35-23.05 35.25-23.05L35.25-23.05ZM75.65 0L71.25 0 70.55-3.75Q68.59-1.6 66.32-0.5 64.05 0.6 61.2 0.6L61.2 0.6Q57.65 0.6 55.45-1.43 53.25-3.45 53.25-6.8L53.25-6.8Q53.25-11.15 56.75-13.2 60.25-15.25 65.75-15.25L65.75-15.25Q67.75-15.25 70.15-15L70.15-15 70.15-16.8Q70.15-19.5 68.67-21.13 67.2-22.75 64.84-22.75L64.84-22.75Q62.05-22.75 59.77-22 57.5-21.25 55.1-19.65L55.1-19.65 55.1-23.9Q57.45-25.45 59.9-26.08 62.35-26.7 65.5-26.7L65.5-26.7Q69.5-26.7 72.02-24.15 74.55-21.6 74.55-17.4L74.55-17.4 74.55-5.8 75.65 0ZM62.1-3.1Q64.5-3.1 66.4-4.1 68.3-5.1 70.15-7L70.15-7 70.15-11.9 65.55-11.9Q58-11.9 58-7.05L58-7.05Q58-5.25 59.15-4.17 60.3-3.1 62.1-3.1L62.1-3.1ZM106.84 0L102.44 0 101.79-3.45Q99.99-1.45 97.74-0.45 95.49 0.55 92.69 0.55L92.69 0.55Q87.84 0.55 85.24-3.2 82.64-6.95 82.64-12.8L82.64-12.8Q82.64-16.8 84.07-19.95 85.49-23.1 88.17-24.9 90.84-26.7 94.54-26.7L94.54-26.7Q96.34-26.7 97.94-26.28 99.54-25.85 101.34-25.05L101.34-25.05 101.34-37.7 105.74-37.7 105.74-5.8 106.84 0ZM93.39-3.5Q95.79-3.5 97.67-4.48 99.54-5.45 101.34-7.35L101.34-7.35 101.34-21.7Q98.14-22.8 94.99-22.8L94.99-22.8Q91.34-22.8 89.37-20.03 87.39-17.25 87.39-12.9L87.39-12.9Q87.39-8.75 88.82-6.13 90.24-3.5 93.39-3.5L93.39-3.5ZM141.54-26.7L143.09-26.7 143.09-21.85 142.34-21.85Q139.99-21.85 138.11-21 136.24-20.15 134.99-18.55L134.99-18.55 134.99 0 130.59 0 130.59-20.3 129.49-26.1 133.89-26.1 134.79-21.45Q136.84-24.45 138.26-25.58 139.69-26.7 141.54-26.7L141.54-26.7ZM171.59-13.05L171.59-11.6 153.09-11.6Q153.49-7.75 155.66-5.48 157.84-3.2 161.59-3.2L161.59-3.2Q163.84-3.2 165.96-4.13 168.09-5.05 170.29-6.85L170.29-6.85 170.49-6.85 170.49-2.45Q168.29-0.85 166.14-0.13 163.99 0.6 161.54 0.6L161.54 0.6Q157.54 0.6 154.59-1.15 151.64-2.9 150.06-6.03 148.49-9.15 148.49-13.2L148.49-13.2Q148.49-17.05 149.91-20.13 151.34-23.2 153.99-24.95 156.64-26.7 160.19-26.7L160.19-26.7Q163.79-26.7 166.36-24.93 168.94-23.15 170.26-20.05 171.59-16.95 171.59-13.05L171.59-13.05ZM160.24-23.05Q157.14-23.05 155.29-20.8 153.44-18.55 153.09-15L153.09-15 167.04-15Q166.69-18.65 165.01-20.85 163.34-23.05 160.24-23.05L160.24-23.05ZM186.98 0.6Q184.58 0.6 182.26-0.13 179.93-0.85 177.88-2.2L177.88-2.2 177.88-6.8Q182.43-3.3 186.88-3.3L186.88-3.3Q189.48-3.3 191.08-4.38 192.68-5.45 192.68-7.25L192.68-7.25Q192.68-8.5 191.91-9.3 191.13-10.1 189.98-10.55 188.83-11 186.68-11.65L186.68-11.65Q184.03-12.4 182.31-13.13 180.58-13.85 179.38-15.28 178.18-16.7 178.18-19L178.18-19Q178.18-22.5 180.83-24.6 183.48-26.7 187.78-26.7L187.78-26.7Q192.08-26.7 195.58-24.45L195.58-24.45 195.58-20Q193.63-21.5 191.81-22.15 189.98-22.8 187.98-22.8L187.98-22.8Q185.48-22.8 184.03-21.9 182.58-21 182.58-19.4L182.58-19.4Q182.58-18.25 183.36-17.5 184.13-16.75 185.28-16.3 186.43-15.85 188.58-15.2L188.58-15.2Q191.28-14.4 192.98-13.68 194.68-12.95 195.88-11.48 197.08-10 197.08-7.65L197.08-7.65Q197.08-5.25 195.78-3.38 194.48-1.5 192.18-0.45 189.88 0.6 186.98 0.6L186.98 0.6ZM217.48-26.7Q220.88-26.7 223.28-24.9 225.68-23.1 226.91-20 228.13-16.9 228.13-13L228.13-13Q228.13-9.1 226.71-6.03 225.28-2.95 222.61-1.2 219.93 0.55 216.28 0.55L216.28 0.55Q214.43 0.55 212.83 0.15 211.23-0.25 209.43-1L209.43-1 209.43 11.6 205.03 11.6 205.03-20.3 203.93-26.1 208.33-26.1 208.98-22.75Q212.38-26.7 217.48-26.7L217.48-26.7ZM215.83-3.35Q219.43-3.35 221.41-6.05 223.38-8.75 223.38-13L223.38-13Q223.38-17.25 221.86-19.95 220.33-22.65 217.08-22.65L217.08-22.65Q214.78-22.65 212.96-21.7 211.13-20.75 209.43-18.9L209.43-18.9 209.43-4.35Q212.68-3.35 215.83-3.35L215.83-3.35ZM247.98 0.6Q242.28 0.6 239.08-3.13 235.88-6.85 235.88-13.05L235.88-13.05Q235.88-19.25 239.08-22.98 242.28-26.7 247.98-26.7L247.98-26.7Q253.68-26.7 256.88-22.98 260.08-19.25 260.08-13.05L260.08-13.05Q260.08-6.85 256.88-3.13 253.68 0.6 247.98 0.6L247.98 0.6ZM247.98-3.2Q251.63-3.2 253.48-5.9 255.33-8.6 255.33-13.05L255.33-13.05Q255.33-17.5 253.48-20.2 251.63-22.9 247.98-22.9L247.98-22.9Q244.33-22.9 242.5-20.2 240.68-17.5 240.68-13.05L240.68-13.05Q240.68-8.6 242.5-5.9 244.33-3.2 247.98-3.2L247.98-3.2ZM282.93-26.7Q286.63-26.7 288.53-24.43 290.43-22.15 290.43-18.1L290.43-18.1 290.43 0 286.03 0 286.03-17.5Q286.03-20 284.98-21.38 283.93-22.75 281.78-22.75L281.78-22.75Q279.33-22.75 277.65-21.95 275.98-21.15 273.93-19.35L273.93-19.35 273.93 0 269.53 0 269.53-20.3 268.43-26.1 272.83-26.1 273.53-22.45Q275.88-24.7 277.9-25.7 279.93-26.7 282.93-26.7L282.93-26.7ZM307.97 0.6Q305.57 0.6 303.25-0.13 300.92-0.85 298.87-2.2L298.87-2.2 298.87-6.8Q303.42-3.3 307.87-3.3L307.87-3.3Q310.47-3.3 312.07-4.38 313.67-5.45 313.67-7.25L313.67-7.25Q313.67-8.5 312.9-9.3 312.12-10.1 310.97-10.55 309.82-11 307.67-11.65L307.67-11.65Q305.02-12.4 303.3-13.13 301.57-13.85 300.37-15.28 299.17-16.7 299.17-19L299.17-19Q299.17-22.5 301.82-24.6 304.47-26.7 308.77-26.7L308.77-26.7Q313.07-26.7 316.57-24.45L316.57-24.45 316.57-20Q314.62-21.5 312.8-22.15 310.97-22.8 308.97-22.8L308.97-22.8Q306.47-22.8 305.02-21.9 303.57-21 303.57-19.4L303.57-19.4Q303.57-18.25 304.35-17.5 305.12-16.75 306.27-16.3 307.42-15.85 309.57-15.2L309.57-15.2Q312.27-14.4 313.97-13.68 315.67-12.95 316.87-11.48 318.07-10 318.07-7.65L318.07-7.65Q318.07-5.25 316.77-3.38 315.47-1.5 313.17-0.45 310.87 0.6 307.97 0.6L307.97 0.6ZM346.62 0L342.22 0 341.52-3.75Q339.57-1.6 337.3-0.5 335.02 0.6 332.17 0.6L332.17 0.6Q328.62 0.6 326.42-1.43 324.22-3.45 324.22-6.8L324.22-6.8Q324.22-11.15 327.72-13.2 331.22-15.25 336.72-15.25L336.72-15.25Q338.72-15.25 341.12-15L341.12-15 341.12-16.8Q341.12-19.5 339.65-21.13 338.17-22.75 335.82-22.75L335.82-22.75Q333.02-22.75 330.75-22 328.47-21.25 326.07-19.65L326.07-19.65 326.07-23.9Q328.42-25.45 330.87-26.08 333.32-26.7 336.47-26.7L336.47-26.7Q340.47-26.7 343-24.15 345.52-21.6 345.52-17.4L345.52-17.4 345.52-5.8 346.62 0ZM333.07-3.1Q335.47-3.1 337.37-4.1 339.27-5.1 341.12-7L341.12-7 341.12-11.9 336.52-11.9Q328.97-11.9 328.97-7.05L328.97-7.05Q328.97-5.25 330.12-4.17 331.27-3.1 333.07-3.1L333.07-3.1ZM367.52-26.7Q370.92-26.7 373.32-24.9 375.72-23.1 376.94-20 378.17-16.9 378.17-13L378.17-13Q378.17-9.1 376.74-6.03 375.32-2.95 372.64-1.2 369.97 0.55 366.32 0.55L366.32 0.55Q364.47 0.55 362.87 0.15 361.27-0.25 359.47-1L359.47-1 359.47 0 355.07 0 355.07-37.7 359.47-37.7 359.47-23.3Q362.72-26.7 367.52-26.7L367.52-26.7ZM365.87-3.35Q369.47-3.35 371.44-6.05 373.42-8.75 373.42-13L373.42-13Q373.42-17.25 371.89-19.95 370.37-22.65 367.12-22.65L367.12-22.65Q364.82-22.65 362.99-21.7 361.17-20.75 359.47-18.9L359.47-18.9 359.47-4.35Q362.72-3.35 365.87-3.35L365.87-3.35ZM386.77 0L386.77-37.7 391.17-37.7 391.17 0 386.77 0ZM417.91-26.1L422.61-26.1 407.66 11.6 403.16 11.6 407.66 0.3 397.31-26.1 401.81-26.1 409.96-4.7 417.91-26.1Z" opacity="1" transform="matrix(1,0,0,1,0,0)" fill="#7e91c6" class="slogan-text-1" data-fill-palette-color="secondary" id="text-1"></path></svg></g></svg></g></svg></g></svg></g><g><svg viewBox="0 0 168.38262379569753 140.71763648360897" height="140.71763648360897" width="168.38262379569753"><g><svg xmlns="http://www.w3.org/2000/svg" xmlns:xlink="http://www.w3.org/1999/xlink" version="1.1" x="0" y="0" viewBox="4.999987795232534 12.393 90.00101893869432 75.214" enable-background="new 0 0 100 100" xml:space="preserve" height="140.71763648360897" width="168.38262379569753" class="icon-icon-0" data-fill-palette-color="accent" id="icon-0"><path d="M26.643 12.393C15.502 12.393 8.01 18.96 5.731 21.255A2.55 2.55 0 0 0 5 23.05V80.209C5 81.307 6.273 81.879 7.117 81.181 16.24 73.618 27.285 73.248 27.285 73.248 42.928 73.248 48.715 87.607 48.715 87.607V29.75C48.715 13.252 26.643 12.393 26.643 12.393" fill="#eb7043" data-fill-palette-color="accent"></path><path d="M94.268 21.255C91.989 18.96 84.497 12.393 73.358 12.393 73.358 12.393 51.286 13.249 51.286 29.75V87.607S57.071 73.248 72.716 73.248C72.716 73.248 83.761 73.62 92.882 81.179 93.728 81.879 95.001 81.304 95.001 80.209V23.05A2.55 2.55 0 0 0 94.268 21.255" fill="#eb7043" data-fill-palette-color="accent"></path></svg></g></svg></g></svg></g><defs></defs></svg><rect width="395.52" height="93.10714612780569" fill="none" stroke="none" visibility="hidden"></rect></g></svg></g></svg>